<mxfile host="app.diagrams.net" modified="2024-06-20T17:34:46.379Z" agent="Mozilla/5.0 (Windows NT 10.0; Win64; x64) AppleWebKit/537.36 (KHTML, like Gecko) Chrome/125.0.0.0 Safari/537.36" etag="PdwSVkJSaNktohXmuvLz" version="24.5.5" type="github">
  <diagram name="Page-1" id="zf4r5Qqb-pgHo04F7OnR">
    <mxGraphModel dx="2074" dy="1140" grid="1" gridSize="10" guides="1" tooltips="1" connect="1" arrows="1" fold="1" page="1" pageScale="1" pageWidth="850" pageHeight="1100" math="0" shadow="0">
      <root>
        <mxCell id="0" />
        <mxCell id="1" parent="0" />
        <mxCell id="xmQPLcL_-1wnKSwKBZ68-1" value="Crate 9" style="rounded=0;whiteSpace=wrap;html=1;" vertex="1" parent="1">
          <mxGeometry x="60" y="600" width="120" height="60" as="geometry" />
        </mxCell>
        <mxCell id="xmQPLcL_-1wnKSwKBZ68-2" value="Crate 8" style="rounded=0;whiteSpace=wrap;html=1;" vertex="1" parent="1">
          <mxGeometry x="90" y="780" width="120" height="60" as="geometry" />
        </mxCell>
        <mxCell id="xmQPLcL_-1wnKSwKBZ68-3" value="Crate 7" style="rounded=0;whiteSpace=wrap;html=1;" vertex="1" parent="1">
          <mxGeometry x="270" y="890" width="120" height="60" as="geometry" />
        </mxCell>
        <mxCell id="xmQPLcL_-1wnKSwKBZ68-4" value="Crate 6" style="rounded=0;whiteSpace=wrap;html=1;" vertex="1" parent="1">
          <mxGeometry x="460" y="890" width="120" height="60" as="geometry" />
        </mxCell>
        <mxCell id="xmQPLcL_-1wnKSwKBZ68-5" value="Crate 4" style="rounded=0;whiteSpace=wrap;html=1;" vertex="1" parent="1">
          <mxGeometry x="690" y="600" width="120" height="60" as="geometry" />
        </mxCell>
        <mxCell id="xmQPLcL_-1wnKSwKBZ68-6" value="Crate 5" style="rounded=0;whiteSpace=wrap;html=1;" vertex="1" parent="1">
          <mxGeometry x="640" y="780" width="120" height="60" as="geometry" />
        </mxCell>
        <mxCell id="xmQPLcL_-1wnKSwKBZ68-7" value="Crate 10" style="rounded=0;whiteSpace=wrap;html=1;" vertex="1" parent="1">
          <mxGeometry x="90" y="430" width="120" height="60" as="geometry" />
        </mxCell>
        <mxCell id="xmQPLcL_-1wnKSwKBZ68-8" value="Crate 3" style="rounded=0;whiteSpace=wrap;html=1;" vertex="1" parent="1">
          <mxGeometry x="640" y="430" width="120" height="60" as="geometry" />
        </mxCell>
        <mxCell id="xmQPLcL_-1wnKSwKBZ68-9" value="Crate 1" style="rounded=0;whiteSpace=wrap;html=1;" vertex="1" parent="1">
          <mxGeometry x="280" y="300" width="120" height="60" as="geometry" />
        </mxCell>
        <mxCell id="xmQPLcL_-1wnKSwKBZ68-10" value="Crate 2" style="rounded=0;whiteSpace=wrap;html=1;" vertex="1" parent="1">
          <mxGeometry x="470" y="300" width="120" height="60" as="geometry" />
        </mxCell>
        <mxCell id="xmQPLcL_-1wnKSwKBZ68-36" style="edgeStyle=orthogonalEdgeStyle;rounded=0;orthogonalLoop=1;jettySize=auto;html=1;exitX=1;exitY=0.5;exitDx=0;exitDy=0;entryX=0.5;entryY=0;entryDx=0;entryDy=0;startArrow=classic;startFill=1;" edge="1" parent="1" source="xmQPLcL_-1wnKSwKBZ68-11" target="xmQPLcL_-1wnKSwKBZ68-17">
          <mxGeometry relative="1" as="geometry" />
        </mxCell>
        <mxCell id="xmQPLcL_-1wnKSwKBZ68-11" value="a" style="ellipse;whiteSpace=wrap;html=1;aspect=fixed;" vertex="1" parent="1">
          <mxGeometry x="60" y="1310" width="80" height="80" as="geometry" />
        </mxCell>
        <mxCell id="xmQPLcL_-1wnKSwKBZ68-37" style="edgeStyle=orthogonalEdgeStyle;rounded=0;orthogonalLoop=1;jettySize=auto;html=1;exitX=0;exitY=0.5;exitDx=0;exitDy=0;entryX=0.5;entryY=0;entryDx=0;entryDy=0;startArrow=classic;startFill=1;" edge="1" parent="1" source="xmQPLcL_-1wnKSwKBZ68-15" target="xmQPLcL_-1wnKSwKBZ68-18">
          <mxGeometry relative="1" as="geometry" />
        </mxCell>
        <mxCell id="xmQPLcL_-1wnKSwKBZ68-15" value="c" style="ellipse;whiteSpace=wrap;html=1;aspect=fixed;" vertex="1" parent="1">
          <mxGeometry x="700" y="1310" width="80" height="80" as="geometry" />
        </mxCell>
        <mxCell id="xmQPLcL_-1wnKSwKBZ68-23" style="edgeStyle=orthogonalEdgeStyle;rounded=0;orthogonalLoop=1;jettySize=auto;html=1;exitX=1;exitY=0.5;exitDx=0;exitDy=0;entryX=0;entryY=0.5;entryDx=0;entryDy=0;startArrow=classic;startFill=1;" edge="1" parent="1" source="xmQPLcL_-1wnKSwKBZ68-17" target="xmQPLcL_-1wnKSwKBZ68-18">
          <mxGeometry relative="1" as="geometry" />
        </mxCell>
        <mxCell id="xmQPLcL_-1wnKSwKBZ68-17" value="b1" style="ellipse;whiteSpace=wrap;html=1;aspect=fixed;" vertex="1" parent="1">
          <mxGeometry x="320" y="1470" width="80" height="80" as="geometry" />
        </mxCell>
        <mxCell id="xmQPLcL_-1wnKSwKBZ68-18" value="b2" style="ellipse;whiteSpace=wrap;html=1;aspect=fixed;" vertex="1" parent="1">
          <mxGeometry x="480" y="1470" width="80" height="80" as="geometry" />
        </mxCell>
        <mxCell id="xmQPLcL_-1wnKSwKBZ68-45" style="edgeStyle=orthogonalEdgeStyle;rounded=0;orthogonalLoop=1;jettySize=auto;html=1;exitX=1;exitY=0.5;exitDx=0;exitDy=0;entryX=0;entryY=0;entryDx=0;entryDy=0;startArrow=classic;startFill=1;" edge="1" parent="1" source="xmQPLcL_-1wnKSwKBZ68-39" target="xmQPLcL_-1wnKSwKBZ68-44">
          <mxGeometry relative="1" as="geometry" />
        </mxCell>
        <mxCell id="xmQPLcL_-1wnKSwKBZ68-39" value="a" style="ellipse;whiteSpace=wrap;html=1;aspect=fixed;" vertex="1" parent="1">
          <mxGeometry x="50" y="1630" width="80" height="80" as="geometry" />
        </mxCell>
        <mxCell id="xmQPLcL_-1wnKSwKBZ68-40" style="edgeStyle=orthogonalEdgeStyle;rounded=0;orthogonalLoop=1;jettySize=auto;html=1;exitX=0;exitY=0.5;exitDx=0;exitDy=0;entryX=0.5;entryY=0;entryDx=0;entryDy=0;startArrow=classic;startFill=1;" edge="1" parent="1" source="xmQPLcL_-1wnKSwKBZ68-41" target="xmQPLcL_-1wnKSwKBZ68-44">
          <mxGeometry relative="1" as="geometry" />
        </mxCell>
        <mxCell id="xmQPLcL_-1wnKSwKBZ68-41" value="c" style="ellipse;whiteSpace=wrap;html=1;aspect=fixed;" vertex="1" parent="1">
          <mxGeometry x="690" y="1630" width="80" height="80" as="geometry" />
        </mxCell>
        <mxCell id="xmQPLcL_-1wnKSwKBZ68-49" style="edgeStyle=orthogonalEdgeStyle;rounded=0;orthogonalLoop=1;jettySize=auto;html=1;exitX=1;exitY=0.5;exitDx=0;exitDy=0;startArrow=classic;startFill=1;" edge="1" parent="1" source="xmQPLcL_-1wnKSwKBZ68-43" target="xmQPLcL_-1wnKSwKBZ68-44">
          <mxGeometry relative="1" as="geometry" />
        </mxCell>
        <mxCell id="xmQPLcL_-1wnKSwKBZ68-43" value="b1" style="ellipse;whiteSpace=wrap;html=1;aspect=fixed;" vertex="1" parent="1">
          <mxGeometry x="310" y="1790" width="80" height="80" as="geometry" />
        </mxCell>
        <mxCell id="xmQPLcL_-1wnKSwKBZ68-44" value="b2" style="ellipse;whiteSpace=wrap;html=1;aspect=fixed;" vertex="1" parent="1">
          <mxGeometry x="470" y="1790" width="80" height="80" as="geometry" />
        </mxCell>
        <mxCell id="xmQPLcL_-1wnKSwKBZ68-50" value="Max Grade: 2" style="text;html=1;align=center;verticalAlign=middle;whiteSpace=wrap;rounded=0;" vertex="1" parent="1">
          <mxGeometry x="130" y="1240" width="60" height="30" as="geometry" />
        </mxCell>
        <mxCell id="xmQPLcL_-1wnKSwKBZ68-55" value="Max Grade: 3" style="text;html=1;align=center;verticalAlign=middle;whiteSpace=wrap;rounded=0;" vertex="1" parent="1">
          <mxGeometry x="121" y="1740" width="60" height="30" as="geometry" />
        </mxCell>
      </root>
    </mxGraphModel>
  </diagram>
</mxfile>
